<svg width="49" height="48" viewBox="0 0 49 48" fill="none" xmlns="http://www.w3.org/2000/svg">
<path d="M13.34 30.2102C13.7882 29.9517 13.9417 29.3778 13.6831 28.9296C13.4242 28.4817 12.8507 28.3279 12.4025 28.5864C11.9542 28.8453 11.8004 29.4192 12.0593 29.8671C12.3179 30.3153 12.8917 30.4691 13.34 30.2102Z" fill="white"/>
<path d="M9.49852 36.678L14.2197 44.8558C15.2385 46.6224 17.5303 47.2765 19.3426 46.2288C21.136 45.1924 21.7523 42.901 20.7148 41.1062L17.9023 36.2341L20.338 34.8279C20.7862 34.5686 20.9401 33.9955 20.6811 33.5472L19.462 31.4357C19.6074 31.4075 20.5632 31.22 37.4188 27.9135C39.5025 27.8003 40.751 25.5214 39.6985 23.6995L36.5827 18.303L38.5738 15.2872C38.7694 14.9906 38.7811 14.6094 38.6035 14.3018L36.7285 11.0542C36.5509 10.7466 36.2136 10.5664 35.8602 10.5873L32.2534 10.8037L28.7945 4.8125C28.2936 3.94458 27.396 3.41907 26.394 3.40662C26.3819 3.40625 26.3702 3.40625 26.3581 3.40625C25.3899 3.40625 24.511 3.88818 23.9902 4.703L11.7434 20.3043L3.7816 24.901C0.650131 26.7083 -0.434585 30.7256 1.37962 33.8655C3.03709 36.7366 6.53148 37.866 9.49852 36.678ZM19.0914 42.0441C19.6092 42.9398 19.3027 44.0861 18.4044 44.605C17.5032 45.1261 16.3555 44.806 15.8435 43.9187L11.156 35.7987L14.4036 33.9237C19.8286 43.3214 19.0043 41.8936 19.0914 42.0441ZM16.9648 34.61L16.0273 32.9862L17.6511 32.0487L18.5886 33.6725L16.9648 34.61ZM35.3944 12.4934L36.69 14.7375L35.5347 16.4873L33.3015 12.619L35.3944 12.4934ZM25.5583 5.73096C25.8099 5.31934 26.2091 5.27686 26.371 5.28125C26.531 5.28308 26.9298 5.33289 27.1704 5.74963L38.0747 24.637C38.4299 25.2518 37.9982 26.0249 37.2859 26.0425C37.1581 26.0454 37.0991 26.0685 36.7717 26.1296L25.2372 6.151C25.4792 5.83972 25.5104 5.80969 25.5583 5.73096ZM23.9895 7.74036L34.8268 26.5112L18.4711 29.7192L13.4979 21.1056L23.9895 7.74036ZM3.0034 32.928C2.59178 32.2157 2.37425 31.4071 2.37425 30.589C2.37425 28.9169 3.27293 27.3597 4.7191 26.5248L12.0261 22.306L16.7136 30.4249L9.4066 34.644C7.16795 35.936 4.29576 35.1663 3.0034 32.928Z" fill="white"/>
<path d="M10.4365 30.8048C10.1776 30.3566 9.60413 30.2028 9.15589 30.4617L7.53211 31.3992C7.0846 31.6577 6.51002 31.5035 6.25147 31.056C5.99256 30.6078 5.41907 30.454 4.97083 30.7129C4.52259 30.9718 4.36878 31.5453 4.62769 31.9935C5.3993 33.3302 7.12049 33.8015 8.46961 33.023L10.0934 32.0855C10.5416 31.8265 10.6954 31.2534 10.4365 30.8048Z" fill="white"/>
<path d="M47.1062 5.41548L41.8822 8.32246C41.4299 8.57442 41.267 9.14534 41.5189 9.59761C41.7701 10.0495 42.3407 10.2132 42.7941 9.96089L48.0177 7.05391C48.4703 6.80196 48.6329 6.23103 48.381 5.77876C48.1294 5.32613 47.5585 5.16353 47.1062 5.41548Z" fill="white"/>
<path d="M46.5587 15.1198L42.9365 14.1494C42.4362 14.0154 41.9221 14.312 41.788 14.8122C41.654 15.3125 41.951 15.8263 42.4512 15.9603L46.0738 16.9308C46.577 17.0659 47.0886 16.7645 47.2219 16.2679C47.3559 15.7677 47.0589 15.2535 46.5587 15.1198Z" fill="white"/>
<path d="M37.4569 2.00754L36.4853 5.6301C36.3513 6.13034 36.6479 6.64414 37.1482 6.77854C37.648 6.9122 38.1622 6.61631 38.2966 6.11569L39.2678 2.49314C39.4018 1.99289 39.1052 1.47873 38.605 1.3447C38.1051 1.21067 37.5909 1.5073 37.4569 2.00754Z" fill="white"/>
</svg>
