<svg width="49" height="50" viewBox="0 0 49 50" fill="none" xmlns="http://www.w3.org/2000/svg">
<path d="M41.6091 37.5871C41.8793 37.1301 41.9904 36.5962 41.9248 36.0693C41.8592 35.5424 41.6207 35.0521 41.2467 34.6751C40.7894 34.2388 40.1816 33.9953 39.5495 33.9953C38.9174 33.9953 38.3096 34.2388 37.8523 34.6751L36.3531 33.1751C39.4531 29.1416 40.9022 24.0797 40.4065 19.0168C39.9108 13.9539 37.5074 9.26919 33.6839 5.91354C29.8605 2.55788 24.9036 0.78264 19.8191 0.948109C14.7347 1.11358 9.90362 3.20736 6.30647 6.80451C2.70931 10.4017 0.615532 15.2327 0.450062 20.3172C0.284593 25.4016 2.05983 30.3586 5.41549 34.182C8.77115 38.0054 13.4558 40.4089 18.5188 40.9046C23.5817 41.4003 28.6436 39.9511 32.6771 36.8511L34.1763 38.3503C33.758 38.7613 33.505 39.3115 33.4653 39.8966C33.4257 40.4816 33.6021 41.0609 33.9612 41.5246C34.3203 41.9882 34.837 42.3039 35.4134 42.4119C35.9898 42.5199 36.5858 42.4126 37.0883 42.1103L43.0379 48.0583C43.331 48.3713 43.684 48.6222 44.0759 48.7961C44.4679 48.97 44.8907 49.0633 45.3195 49.0706C45.7482 49.0779 46.174 48.9989 46.5716 48.8384C46.9692 48.6779 47.3305 48.4391 47.634 48.1362C47.9375 47.8333 48.1771 47.4725 48.3384 47.0753C48.4998 46.678 48.5797 46.2524 48.5733 45.8237C48.567 45.3949 48.4745 44.9718 48.3014 44.5795C48.1284 44.1872 47.8783 43.8337 47.5659 43.5399L41.6091 37.5871ZM40.5371 38.7775L41.7699 40.0095L39.5083 42.2695L38.2763 41.0383L40.5371 38.7775ZM2.1003 21.0015C2.1003 17.3624 3.17944 13.8049 5.20126 10.7791C7.22308 7.75319 10.0968 5.39482 13.4589 4.00216C16.8211 2.60951 20.5207 2.24513 24.09 2.9551C27.6592 3.66507 30.9378 5.4175 33.5111 7.99078C36.0844 10.5641 37.8368 13.8426 38.5467 17.4119C39.2567 20.9811 38.8923 24.6808 37.4997 28.0429C36.107 31.4051 33.7487 34.2788 30.7228 36.3006C27.6969 38.3224 24.1395 39.4015 20.5003 39.4015C15.6219 39.3963 10.9449 37.456 7.49538 34.0065C4.04586 30.5569 2.1056 25.8799 2.1003 21.0015ZM33.9107 35.8255C34.4052 35.3782 34.877 34.9065 35.3243 34.4119L36.7195 35.8079L35.3059 37.2207L33.9107 35.8255ZM35.3051 40.6167C35.2307 40.5424 35.1717 40.4542 35.1315 40.3571C35.0912 40.26 35.0705 40.1559 35.0705 40.0507C35.0705 39.9456 35.0912 39.8415 35.1315 39.7444C35.1717 39.6473 35.2307 39.559 35.3051 39.4847L38.9851 35.8047C39.1351 35.6548 39.3386 35.5705 39.5507 35.5705C39.7628 35.5705 39.9663 35.6548 40.1163 35.8047C40.2663 35.9548 40.3505 36.1582 40.3505 36.3703C40.3505 36.5825 40.2663 36.7859 40.1163 36.9359L36.4363 40.6159C36.2864 40.766 36.083 40.8504 35.8709 40.8506C35.6587 40.8507 35.4552 40.7666 35.3051 40.6167ZM46.4251 46.9367C46.1211 47.2271 45.7166 47.3887 45.2961 47.3878C44.8757 47.387 44.4719 47.2236 44.1691 46.9319L40.6395 43.4015L42.9003 41.1407L46.4315 44.6712C46.5802 44.8201 46.698 44.9969 46.7783 45.1915C46.8585 45.386 46.8996 45.5945 46.8992 45.8049C46.8987 46.0154 46.8568 46.2237 46.7757 46.4179C46.6946 46.6121 46.576 46.7884 46.4267 46.9367H46.4251Z" fill="white"/>
<path d="M20.4998 4.20312C20.2876 4.20312 20.0841 4.28741 19.9341 4.43744C19.7841 4.58747 19.6998 4.79095 19.6998 5.00313C19.6998 5.2153 19.7841 5.41878 19.9341 5.56881C20.0841 5.71885 20.2876 5.80314 20.4998 5.80314C23.1605 5.79907 25.7757 6.49349 28.0839 7.81701C30.3921 9.14053 32.3125 11.0468 33.653 13.3451C34.9935 15.6435 35.7072 18.2535 35.7228 20.9142C35.7383 23.5748 35.0552 26.193 33.7417 28.5069C32.4282 30.8208 30.5303 32.7494 28.2377 34.0998C25.9452 35.4503 23.3383 36.1753 20.6777 36.2023C18.0171 36.2294 15.396 35.5576 13.0764 34.2541C10.7569 32.9506 8.82014 31.061 7.4598 28.7743L10.8998 25.3343L14.5662 29.0031C14.8672 29.3032 15.2748 29.4717 15.6998 29.4717C16.1248 29.4717 16.5324 29.3032 16.8334 29.0031L19.6998 26.1367L23.3662 29.8031C23.6671 30.1034 24.0748 30.272 24.4998 30.272C24.9248 30.272 25.3325 30.1034 25.6334 29.8031L31.6998 23.7343V24.2031C31.6998 24.4153 31.7841 24.6188 31.9341 24.7688C32.0841 24.9188 32.2876 25.0031 32.4998 25.0031C32.712 25.0031 32.9155 24.9188 33.0655 24.7688C33.2155 24.6188 33.2998 24.4153 33.2998 24.2031V21.8031C33.2998 21.591 33.2155 21.3875 33.0655 21.2374C32.9155 21.0874 32.712 21.0031 32.4998 21.0031H30.0998C29.8876 21.0031 29.6841 21.0874 29.5341 21.2374C29.3841 21.3875 29.2998 21.591 29.2998 21.8031C29.2998 22.0153 29.3841 22.2188 29.5341 22.3688C29.6841 22.5188 29.8876 22.6031 30.0998 22.6031H30.5678L24.4998 28.6695L20.8334 25.0031C20.5324 24.7031 20.1248 24.5346 19.6998 24.5346C19.2748 24.5346 18.8672 24.7031 18.5662 25.0031L15.6998 27.8695L12.0334 24.2031C11.7324 23.9031 11.3248 23.7346 10.8998 23.7346C10.4748 23.7346 10.0672 23.9031 9.7662 24.2031L6.679 27.2927C5.77181 25.3199 5.30135 23.1745 5.2998 21.0031C5.31412 17.5313 6.51038 14.1678 8.69157 11.4666C10.8728 8.76542 13.9088 6.88758 17.2998 6.14234C17.4042 6.12206 17.5036 6.08114 17.592 6.022C17.6805 5.96285 17.7562 5.88667 17.8149 5.79789C17.8735 5.70912 17.9138 5.60954 17.9335 5.50498C17.9532 5.40042 17.9518 5.29299 17.9295 5.18897C17.9071 5.08495 17.8643 4.98642 17.8034 4.89917C17.7425 4.81192 17.6648 4.73769 17.5749 4.68084C17.485 4.62398 17.3846 4.58563 17.2797 4.56802C17.1747 4.55042 17.0674 4.55393 16.9638 4.57833C12.7569 5.48251 9.05701 7.96595 6.62667 11.5169C4.19632 15.0679 3.22066 19.4158 3.90072 23.6647C4.58079 27.9137 6.86476 31.7399 10.282 34.3549C13.6992 36.9699 17.9894 38.1745 22.2684 37.7205C26.5474 37.2665 30.4892 35.1884 33.2816 31.9145C36.0739 28.6405 37.5041 24.4202 37.2774 20.1232C37.0506 15.8262 35.1843 11.7798 32.0628 8.81793C28.9414 5.85605 24.8028 4.20434 20.4998 4.20312Z" fill="white"/>
<path d="M14.0996 13.7984C14.0996 14.2731 14.2404 14.7371 14.5041 15.1318C14.7678 15.5265 15.1426 15.8341 15.5812 16.0157C16.0197 16.1974 16.5023 16.2449 16.9678 16.1523C17.4334 16.0597 17.861 15.8311 18.1967 15.4955C18.5323 15.1598 18.7609 14.7322 18.8535 14.2667C18.9461 13.8011 18.8986 13.3185 18.7169 12.88C18.5353 12.4415 18.2277 12.0666 17.833 11.8029C17.4383 11.5392 16.9743 11.3984 16.4996 11.3984C15.8631 11.3984 15.2526 11.6513 14.8026 12.1014C14.3525 12.5515 14.0996 13.1619 14.0996 13.7984ZM17.2996 13.7984C17.2996 13.9567 17.2527 14.1113 17.1648 14.2429C17.0769 14.3745 16.9519 14.477 16.8058 14.5375C16.6596 14.5981 16.4987 14.6139 16.3435 14.5831C16.1884 14.5522 16.0458 14.476 15.9339 14.3641C15.822 14.2522 15.7458 14.1097 15.715 13.9545C15.6841 13.7993 15.7 13.6385 15.7605 13.4923C15.8211 13.3461 15.9236 13.2212 16.0552 13.1333C16.1867 13.0454 16.3414 12.9984 16.4996 12.9984C16.7118 12.9984 16.9153 13.0827 17.0653 13.2328C17.2153 13.3828 17.2996 13.5863 17.2996 13.7984Z" fill="white"/>
<path d="M22.0996 19.4C22.0996 19.8747 22.2404 20.3387 22.5041 20.7334C22.7678 21.128 23.1426 21.4357 23.5812 21.6173C24.0197 21.799 24.5023 21.8465 24.9678 21.7539C25.4334 21.6613 25.861 21.4327 26.1967 21.0971C26.5323 20.7614 26.7609 20.3338 26.8535 19.8682C26.9461 19.4027 26.8986 18.9201 26.7169 18.4816C26.5353 18.043 26.2277 17.6682 25.833 17.4045C25.4383 17.1408 24.9743 17 24.4996 17C23.8631 17 23.2526 17.2529 22.8026 17.7029C22.3525 18.153 22.0996 18.7635 22.0996 19.4ZM24.4996 18.6C24.6578 18.6 24.8125 18.6469 24.9441 18.7348C25.0756 18.8227 25.1782 18.9477 25.2387 19.0939C25.2993 19.24 25.3151 19.4009 25.2842 19.5561C25.2534 19.7113 25.1772 19.8538 25.0653 19.9657C24.9534 20.0776 24.8109 20.1538 24.6557 20.1846C24.5005 20.2155 24.3396 20.1997 24.1935 20.1391C24.0473 20.0786 23.9223 19.976 23.8344 19.8445C23.7465 19.7129 23.6996 19.5582 23.6996 19.4C23.6996 19.1878 23.7839 18.9843 23.9339 18.8343C24.084 18.6843 24.2874 18.6 24.4996 18.6Z" fill="white"/>
<path d="M23.2841 11.496C23.1918 11.4457 23.0905 11.4141 22.986 11.4029C22.8815 11.3918 22.7758 11.4014 22.675 11.4311C22.5742 11.4608 22.4802 11.5101 22.3985 11.5761C22.3167 11.6422 22.2488 11.7237 22.1985 11.816L17.3985 20.616C17.2969 20.8023 17.2734 21.0214 17.3333 21.2249C17.3931 21.4285 17.5314 21.6 17.7177 21.7016C17.904 21.8033 18.123 21.8267 18.3266 21.7669C18.5302 21.707 18.7017 21.5687 18.8033 21.3824L23.6033 12.5824C23.6538 12.4902 23.6856 12.3888 23.6968 12.2843C23.7081 12.1797 23.6986 12.0739 23.669 11.973C23.6393 11.8721 23.5901 11.7781 23.524 11.6962C23.458 11.6144 23.3765 11.5463 23.2841 11.496Z" fill="white"/>
</svg>
