<svg width="49" height="48" viewBox="0 0 49 48" fill="none" xmlns="http://www.w3.org/2000/svg">
<path d="M27.6387 16.3413H29.7795C30.3235 16.34 30.8448 16.123 31.2291 15.7379C31.6133 15.3527 31.8291 14.8309 31.8291 14.2869V12.1365C31.8297 11.8667 31.7772 11.5994 31.6746 11.3499C31.5719 11.1004 31.4211 10.8736 31.2308 10.6824C31.0404 10.4912 30.8143 10.3393 30.5653 10.2355C30.3163 10.1317 30.0493 10.0779 29.7795 10.0773H27.6387C27.0955 10.0785 26.5749 10.2949 26.1908 10.679C25.8067 11.0631 25.5904 11.5837 25.5891 12.1269V14.2773C25.5878 14.5475 25.6399 14.8152 25.7423 15.0653C25.8446 15.3153 25.9953 15.5427 26.1857 15.7345C26.3761 15.9262 26.6024 16.0785 26.8518 16.1826C27.1011 16.2867 27.3685 16.3406 27.6387 16.3413ZM27.0291 12.1365C27.0278 12.0556 27.0427 11.9753 27.0727 11.9002C27.1028 11.8252 27.1475 11.7568 27.2042 11.6992C27.261 11.6416 27.3286 11.5958 27.4032 11.5646C27.4778 11.5333 27.5578 11.5173 27.6387 11.5173H29.7795C29.9412 11.5173 30.0962 11.5815 30.2105 11.6958C30.3249 11.8101 30.3891 11.9652 30.3891 12.1269V14.2773C30.391 14.3585 30.3767 14.4393 30.3469 14.515C30.3171 14.5906 30.2725 14.6595 30.2157 14.7177C30.1589 14.7758 30.0911 14.822 30.0162 14.8535C29.9412 14.8851 29.8608 14.9013 29.7795 14.9013H27.6387C27.5582 14.9013 27.4786 14.8853 27.4043 14.8544C27.33 14.8235 27.2626 14.7781 27.2059 14.721C27.1493 14.6639 27.1045 14.5961 27.0741 14.5216C27.0438 14.4471 27.0285 14.3673 27.0291 14.2869V12.1365ZM18.6435 18.9765H16.4931C16.2239 18.9765 15.9574 19.0295 15.7087 19.1325C15.4601 19.2355 15.2341 19.3865 15.0438 19.5768C14.8535 19.7671 14.7025 19.993 14.5995 20.2417C14.4965 20.4904 14.4435 20.7569 14.4435 21.0261V23.1765C14.4435 23.7201 14.6594 24.2414 15.0438 24.6258C15.4282 25.0101 15.9495 25.2261 16.4931 25.2261H18.6435C19.1875 25.2261 19.7093 25.0103 20.0945 24.626C20.4796 24.2418 20.6966 23.7205 20.6979 23.1765V21.0261C20.6966 20.482 20.4796 19.9607 20.0945 19.5765C19.7093 19.1923 19.1875 18.9765 18.6435 18.9765ZM19.2579 23.1765C19.2579 23.2569 19.242 23.3366 19.211 23.4109C19.1801 23.4851 19.1348 23.5526 19.0777 23.6092C19.0205 23.6659 18.9528 23.7107 18.8783 23.741C18.8037 23.7714 18.724 23.7867 18.6435 23.7861H16.4931C16.413 23.7861 16.3338 23.7703 16.2598 23.7397C16.1859 23.709 16.1187 23.6641 16.062 23.6075C16.0054 23.5509 15.9605 23.4837 15.9299 23.4097C15.8993 23.3358 15.8835 23.2565 15.8835 23.1765V21.0261C15.8835 20.946 15.8993 20.8667 15.9299 20.7928C15.9605 20.7188 16.0054 20.6516 16.062 20.595C16.1187 20.5384 16.1859 20.4935 16.2598 20.4629C16.3338 20.4322 16.413 20.4165 16.4931 20.4165H18.6435C18.724 20.4158 18.8037 20.4311 18.8783 20.4615C18.9528 20.4918 19.0205 20.5366 19.0777 20.5933C19.1348 20.65 19.1801 20.7174 19.211 20.7917C19.242 20.8659 19.2579 20.9456 19.2579 21.0261V23.1765ZM24.3939 25.7253C23.7759 25.7253 23.1717 25.9085 22.6579 26.2519C22.144 26.5952 21.7435 27.0833 21.507 27.6543C21.2705 28.2252 21.2086 28.8535 21.3291 29.4597C21.4497 30.0658 21.7473 30.6226 22.1843 31.0596C22.6213 31.4966 23.1781 31.7943 23.7843 31.9148C24.3904 32.0354 25.0187 31.9735 25.5897 31.737C26.1607 31.5005 26.6487 31.1 26.9921 30.5861C27.3354 30.0722 27.5187 29.4681 27.5187 28.8501C27.5174 28.0217 27.1878 27.2276 26.6021 26.6419C26.0163 26.0562 25.2223 25.7265 24.3939 25.7253ZM24.3939 30.5253C24.0607 30.5253 23.7349 30.4265 23.4579 30.2413C23.1808 30.0562 22.9649 29.7931 22.8373 29.4852C22.7098 29.1774 22.6765 28.8386 22.7415 28.5118C22.8065 28.185 22.9669 27.8848 23.2026 27.6491C23.4382 27.4135 23.7384 27.253 24.0652 27.188C24.392 27.123 24.7308 27.1564 25.0386 27.2839C25.3465 27.4114 25.6096 27.6274 25.7948 27.9044C25.9799 28.1815 26.0787 28.5072 26.0787 28.8405C26.0793 29.0623 26.0363 29.2822 25.9519 29.4874C25.8676 29.6926 25.7437 29.8793 25.5872 30.0366C25.4308 30.1939 25.2449 30.3189 25.0401 30.4044C24.8354 30.4899 24.6158 30.5342 24.3939 30.5349V30.5253ZM20.2083 28.8405C20.2083 29.0314 20.1324 29.2146 19.9974 29.3496C19.8624 29.4846 19.6793 29.5605 19.4883 29.5605H17.5251C17.3341 29.5605 17.151 29.4846 17.016 29.3496C16.881 29.2146 16.8051 29.0314 16.8051 28.8405V27.1989C16.8051 27.0079 16.881 26.8248 17.016 26.6898C17.151 26.5547 17.3341 26.4789 17.5251 26.4789C17.7161 26.4789 17.8992 26.5547 18.0342 26.6898C18.1692 26.8248 18.2451 27.0079 18.2451 27.1989V28.1301H19.4883C19.6793 28.1301 19.8624 28.2059 19.9974 28.341C20.1324 28.476 20.2083 28.6591 20.2083 28.8501V28.8405ZM16.6947 17.1477V13.2117C16.6947 13.0207 16.7706 12.8376 16.9056 12.7025C17.0406 12.5675 17.2237 12.4917 17.4147 12.4917H23.2227C23.4137 12.4917 23.5968 12.5675 23.7318 12.7025C23.8668 12.8376 23.9427 13.0207 23.9427 13.2117C23.9427 13.4026 23.8668 13.5858 23.7318 13.7208C23.5968 13.8558 23.4137 13.9317 23.2227 13.9317H18.1347V17.1477C18.1347 17.3386 18.0588 17.5218 17.9238 17.6568C17.7888 17.7918 17.6057 17.8677 17.4147 17.8677C17.2237 17.8677 17.0406 17.7918 16.9056 17.6568C16.7706 17.5218 16.6947 17.3386 16.6947 17.1477ZM32.1795 21.2517H25.0419V23.8725C25.0419 24.0634 24.966 24.2466 24.831 24.3816C24.696 24.5166 24.5129 24.5925 24.3219 24.5925C24.1309 24.5925 23.9478 24.5166 23.8128 24.3816C23.6778 24.2466 23.6019 24.0634 23.6019 23.8725V20.5125C23.6019 20.3215 23.6778 20.1384 23.8128 20.0033C23.9478 19.8683 24.1309 19.7925 24.3219 19.7925H27.9939V17.9781C27.9939 17.7871 28.0698 17.604 28.2048 17.469C28.3398 17.3339 28.5229 17.2581 28.7139 17.2581C28.9049 17.2581 29.088 17.3339 29.223 17.469C29.358 17.604 29.4339 17.7871 29.4339 17.9781V19.8117H32.8899C33.0809 19.8117 33.264 19.8875 33.399 20.0226C33.534 20.1576 33.6099 20.3407 33.6099 20.5317V23.8917C33.6099 24.0826 33.534 24.2658 33.399 24.4008C33.264 24.5358 33.0809 24.6117 32.8899 24.6117C32.6989 24.6117 32.5158 24.5358 32.3808 24.4008C32.2458 24.2658 32.1699 24.0826 32.1699 23.8917V21.2517H32.1795ZM46.5795 15.9045C46.318 15.2036 45.8548 14.5958 45.2483 14.1578C44.6418 13.7199 43.9191 13.4714 43.1716 13.4437C42.424 13.4159 41.6849 13.6102 41.0476 14.0021C40.4104 14.3939 39.9034 14.9657 39.5907 15.6453L39.2115 16.4613V10.8837C39.2102 10.0031 38.8599 9.15899 38.2372 8.53634C37.6146 7.9137 36.7705 7.56334 35.8899 7.56207H12.9171C12.7438 6.19892 12.0564 4.95343 10.9955 4.08014C9.93454 3.20686 8.58015 2.77171 7.20911 2.86365C5.83807 2.95558 4.5539 3.56765 3.61905 4.57476C2.68421 5.58187 2.16928 6.90799 2.1795 8.28207V29.3205C2.17715 29.3508 2.17715 29.3813 2.1795 29.4117C2.20715 30.8216 2.78674 32.1645 3.79376 33.1518C4.80077 34.139 6.15486 34.6919 7.5651 34.6917H30.8403L29.8563 36.8277V36.8757C29.8536 36.8932 29.8536 36.911 29.8563 36.9285C29.846 36.9647 29.838 37.0016 29.8323 37.0389C29.8323 37.0389 29.8323 37.0389 29.8323 37.0725L29.3523 43.3125C29.3338 43.5409 29.3626 43.7706 29.4367 43.9874C29.5108 44.2042 29.6288 44.4034 29.7832 44.5727C29.9376 44.742 30.1252 44.8777 30.3343 44.9714C30.5434 45.0651 30.7696 45.1147 30.9987 45.1173C31.2174 45.119 31.4343 45.0774 31.637 44.9951C31.8396 44.9127 32.024 44.7911 32.1795 44.6373L36.6003 40.2309L36.6435 40.1781L36.7155 40.0725V40.0437L44.0307 24.1077L45.4707 20.9541L46.4307 18.8325C46.6504 18.3793 46.7768 17.8866 46.8024 17.3836C46.8279 16.8806 46.7521 16.3776 46.5795 15.9045ZM40.8963 16.2453C41.1564 15.6804 41.63 15.2418 42.2132 15.0258C42.7963 14.8098 43.4414 14.8341 44.0067 15.0933C44.5713 15.3524 45.0098 15.8251 45.2258 16.4075C45.4419 16.9899 45.4177 17.6343 45.1587 18.1989L44.4867 19.6389L40.2291 17.7093L40.8963 16.2453ZM39.6243 19.0149L41.7555 19.9749L43.8867 20.9349L43.0419 22.7781L38.7795 20.8245L39.6243 19.0149ZM8.0643 25.3941C9.02351 25.5103 9.90686 25.974 10.5472 26.6976C11.1876 27.4211 11.5406 28.3542 11.5395 29.3205C11.5347 29.5396 11.4859 29.7556 11.396 29.9555C11.3061 30.1555 11.1769 30.3353 11.0162 30.4844C10.8555 30.6335 10.6665 30.7488 10.4603 30.8234C10.2542 30.898 10.0352 30.9305 9.8163 30.9189C9.59876 30.9223 9.3828 30.8815 9.18148 30.799C8.98017 30.7164 8.79769 30.5939 8.6451 30.4389C8.23467 29.9454 8.0301 29.3128 8.0739 28.6725L8.0643 25.3941ZM3.6195 8.28207C3.6195 7.76266 3.7218 7.24834 3.92057 6.76848C4.11934 6.28861 4.41067 5.85259 4.77795 5.48532C5.14522 5.11804 5.58124 4.82671 6.06111 4.62794C6.54098 4.42917 7.05529 4.32687 7.5747 4.32687C8.0941 4.32687 8.60842 4.42917 9.08829 4.62794C9.56815 4.82671 10.0042 5.11804 10.3714 5.48532C10.7387 5.85259 11.0301 6.28861 11.2288 6.76848C11.4276 7.24834 11.5299 7.76266 11.5299 8.28207V25.6485C11.0215 25.1098 10.4085 24.6806 9.72837 24.3873C9.04825 24.094 8.31538 23.9427 7.5747 23.9427C6.83402 23.9427 6.10115 24.094 5.42103 24.3873C4.7409 24.6806 4.12786 25.1098 3.6195 25.6485V8.28207ZM7.5747 33.2757C6.60847 33.2789 5.67458 32.9278 4.94969 32.2889C4.2248 31.6501 3.7592 30.7677 3.64095 29.8087C3.52271 28.8498 3.76002 27.8807 4.30801 27.0849C4.85599 26.2891 5.67664 25.7217 6.6147 25.4901V28.6725C6.55846 29.683 6.90347 30.6749 7.5747 31.4325C7.86135 31.729 8.20537 31.964 8.5858 32.1233C8.96623 32.2826 9.3751 32.3627 9.7875 32.3589C10.1979 32.3743 10.6073 32.3074 10.9914 32.162C11.3756 32.0167 11.7268 31.796 12.0243 31.5128C12.3217 31.2296 12.5595 30.8898 12.7236 30.5132C12.8876 30.1367 12.9747 29.7312 12.9795 29.3205V9.00207H35.8947C36.3933 9.00333 36.8712 9.20198 37.2238 9.55457C37.5764 9.90717 37.775 10.385 37.7763 10.8837V19.6005L37.1763 20.9157L34.8675 25.9413C34.5873 25.8007 34.2785 25.7268 33.9651 25.7253H31.8147C31.2736 25.7291 30.756 25.9467 30.3747 26.3306C29.9934 26.7146 29.7795 27.2338 29.7795 27.7749V29.9253C29.7795 30.4689 29.9954 30.9902 30.3798 31.3746C30.7642 31.7589 31.2855 31.9749 31.8291 31.9749H32.1123L31.5123 33.2757H7.5747ZM34.2627 27.2517L32.7555 30.5349H31.7955C31.6397 30.5263 31.4932 30.4583 31.386 30.3449C31.2789 30.2315 31.2193 30.0813 31.2195 29.9253V27.7749C31.2195 27.6132 31.2837 27.4581 31.398 27.3438C31.5124 27.2295 31.6674 27.1653 31.8291 27.1653H33.9795C34.0795 27.1705 34.1768 27.2002 34.2627 27.2517ZM31.1523 43.6005C31.1214 43.6344 31.0801 43.657 31.0349 43.6649C30.9897 43.6727 30.9432 43.6652 30.9027 43.6437C30.8603 43.627 30.8246 43.5968 30.8011 43.5577C30.7777 43.5187 30.7678 43.4729 30.7731 43.4277L31.1523 38.2389L34.8387 39.9285L31.1523 43.6005ZM35.7267 38.7525L31.4691 36.7989L38.1891 22.1685L40.3203 23.1285L42.4467 24.0885L35.7267 38.7525Z" fill="white"/>
</svg>
