<svg width="49" height="49" viewBox="0 0 49 49" fill="none" xmlns="http://www.w3.org/2000/svg">
<circle cx="24.5" cy="24.5" r="24.5" fill="black"/>
<path d="M29.0438 24.658C29.9878 24.834 30.7638 25.306 31.3718 26.074C31.9798 26.842 32.2838 27.722 32.2838 28.714C32.2838 29.61 32.0598 30.402 31.6118 31.09C31.1798 31.762 30.5478 32.29 29.7158 32.674C28.8838 33.058 27.8998 33.25 26.7638 33.25H19.5398V16.498H26.4518C27.5878 16.498 28.5638 16.682 29.3798 17.05C30.2118 17.418 30.8358 17.93 31.2518 18.586C31.6838 19.242 31.8998 19.986 31.8998 20.818C31.8998 21.794 31.6358 22.61 31.1078 23.266C30.5958 23.922 29.9078 24.386 29.0438 24.658ZM22.8998 23.41H25.9718C26.7718 23.41 27.3878 23.234 27.8198 22.882C28.2518 22.514 28.4678 21.994 28.4678 21.322C28.4678 20.65 28.2518 20.13 27.8198 19.762C27.3878 19.394 26.7718 19.21 25.9718 19.21H22.8998V23.41ZM26.2838 30.514C27.0998 30.514 27.7318 30.322 28.1798 29.938C28.6438 29.554 28.8758 29.01 28.8758 28.306C28.8758 27.586 28.6358 27.026 28.1558 26.626C27.6758 26.21 27.0278 26.002 26.2118 26.002H22.8998V30.514H26.2838Z" fill="white"/>
</svg>
